<?xml version="1.0" standalone="no"?>
<!DOCTYPE svg PUBLIC "-//W3C//DTD SVG 20010904//EN"
 "http://www.w3.org/TR/2001/REC-SVG-20010904/DTD/svg10.dtd">
<svg version="1.0" xmlns="http://www.w3.org/2000/svg"
 width="420.000000pt" height="322.000000pt" viewBox="0 0 420.000000 322.000000"
 preserveAspectRatio="xMidYMid meet">

<g transform="translate(0.000000,322.000000) scale(0.100000,-0.100000)"
fill="#000000" stroke="none">
<path d="M1638 2725 c-2 -2 -21 -6 -43 -9 -98 -12 -289 -65 -305 -85 -3 -3
-35 -22 -72 -41 -38 -19 -68 -38 -68 -42 0 -4 -6 -8 -14 -8 -16 0 -57 -34
-135 -111 -141 -140 -227 -275 -286 -449 -39 -117 -38 -113 -41 -130 -2 -8
-11 -53 -21 -100 -19 -94 -25 -417 -10 -520 13 -82 54 -206 95 -283 l35 -69
-31 -63 c-32 -65 -63 -93 -162 -146 -85 -44 -110 -81 -90 -128 50 -122 494
-174 683 -81 l58 29 57 -20 c133 -47 254 -62 498 -64 l231 -2 45 -31 c43 -29
130 -64 194 -77 178 -36 445 3 530 77 27 24 45 30 91 34 32 2 69 6 83 8 14 2
58 9 99 15 83 13 170 36 218 58 30 14 35 13 95 -16 80 -39 137 -50 263 -49
129 1 232 18 322 52 132 50 158 106 82 177 -60 56 -208 124 -336 155 l-72 18
-6 51 c-6 52 -14 78 -47 155 -26 59 -79 164 -87 170 -4 3 -15 18 -24 33 -35
54 -156 182 -225 239 -92 75 -243 160 -356 199 -44 16 -53 34 -61 115 -2 30
-12 81 -22 112 -9 31 -17 60 -17 64 -1 3 -4 10 -8 14 -5 4 -8 14 -8 22 0 43
-149 303 -186 325 -8 4 -14 13 -14 18 0 18 -173 178 -203 188 -7 2 -14 7 -17
10 -7 9 -82 56 -100 63 -8 4 -53 23 -100 43 -93 39 -168 60 -245 70 -57 8
-262 15 -267 10z m277 -100 c118 -21 225 -58 289 -99 31 -20 59 -36 63 -36 8
0 89 -59 120 -87 13 -13 28 -23 33 -23 4 0 10 -4 12 -9 2 -5 26 -34 53 -63 78
-82 103 -119 169 -253 41 -83 83 -209 93 -280 2 -16 8 -43 12 -60 4 -16 9 -59
10 -95 3 -74 14 -95 42 -79 12 6 19 20 19 39 0 28 1 29 28 19 228 -92 418
-240 555 -436 31 -45 57 -85 57 -89 0 -4 13 -34 29 -68 36 -76 74 -226 66
-258 -6 -24 -5 -25 47 -20 32 2 81 -3 119 -12 82 -21 254 -106 254 -126 0 -22
-59 -47 -166 -71 -123 -28 -300 -22 -378 12 -68 29 -78 42 -46 63 44 29 27 36
-29 11 -138 -61 -357 -113 -468 -111 -62 1 -63 1 -68 31 -8 45 -35 89 -75 119
-19 15 -54 52 -77 82 -58 78 -108 101 -74 35 23 -43 20 -52 -11 -45 -23 5 -12
-8 53 -69 91 -85 119 -132 110 -181 -5 -26 -15 -37 -52 -55 -61 -31 -205 -50
-324 -45 -149 8 -221 29 -285 85 -46 40 -65 86 -72 172 -6 71 -11 81 -37 71
-30 -12 -36 -111 -11 -191 l7 -22 -208 3 c-115 2 -218 6 -229 9 -11 2 -40 8
-65 12 -78 13 -83 14 -165 41 -98 32 -121 44 -210 103 -135 89 -234 209 -309
373 -14 31 -26 63 -26 70 0 8 -5 19 -12 26 -7 7 -9 12 -5 12 4 0 3 8 -2 18 -5
10 -12 36 -15 58 -3 21 -10 64 -15 94 -11 68 -6 349 8 410 5 25 13 63 17 85 4
22 8 42 9 45 22 77 49 157 56 165 5 5 9 17 9 26 0 10 3 19 8 21 4 2 20 28 36
58 50 94 106 171 177 241 143 142 305 232 494 274 82 18 283 18 380 0z m-981
-1939 c63 -60 141 -118 184 -137 17 -7 32 -16 32 -19 0 -13 -103 -33 -198 -38
-109 -5 -224 8 -307 36 -91 30 -93 44 -9 86 68 34 170 132 180 171 l7 28 30
-39 c17 -21 54 -61 81 -88z"/>
<path d="M1005 1805 c-99 -54 -143 -167 -101 -265 39 -93 158 -130 249 -77 66
39 102 115 93 195 -12 98 -63 150 -159 158 -36 4 -61 0 -82 -11z m161 -100 c9
-35 -1 -53 -31 -61 -48 -12 -73 13 -61 61 5 21 12 25 46 25 34 0 41 -4 46 -25z"/>
<path d="M1905 1806 c-123 -53 -162 -197 -83 -301 40 -53 89 -77 157 -77 142
2 230 142 172 273 -45 100 -152 146 -246 105z m143 -82 c28 -20 28 -58 0 -78
-42 -30 -88 -9 -88 39 0 23 32 55 55 55 6 0 21 -7 33 -16z"/>
<path d="M1471 1572 c-14 -2 -35 -11 -48 -19 -38 -25 -25 -83 19 -83 28 0 23
-52 -7 -78 -43 -38 -88 -28 -105 24 -12 37 -38 45 -60 19 -17 -21 -6 -56 30
-90 27 -26 39 -30 85 -30 44 0 59 5 82 27 l28 26 35 -29 c29 -24 43 -29 90
-29 33 0 64 6 76 15 49 34 57 130 11 123 -14 -2 -23 -11 -25 -24 -4 -31 -38
-57 -73 -57 -36 0 -77 36 -81 72 -2 20 3 26 28 33 18 4 35 15 38 24 9 24 -20
63 -52 70 -15 3 -31 7 -37 8 -5 1 -21 0 -34 -2z"/>
</g>
</svg>
